<svg width="760" height="520" viewBox="0 0 760 520" fill="none" xmlns="http://www.w3.org/2000/svg" role="img" aria-labelledby="title desc">
  <title id="title">業務を整理しているデスク</title>
  <desc id="desc">ノート、書類、パソコン、付箋が置かれた落ち着いた事務作業のイラスト</desc>
  <defs>
    <linearGradient id="bg" x1="0" y1="0" x2="760" y2="520" gradientUnits="userSpaceOnUse">
      <stop offset="0" stop-color="#EAF6FF"/>
      <stop offset="0.55" stop-color="#F8FBFF"/>
      <stop offset="1" stop-color="#FFF8EB"/>
    </linearGradient>
    <filter id="shadow" x="-20%" y="-20%" width="140%" height="140%">
      <feDropShadow dx="0" dy="18" stdDeviation="18" flood-color="#123A66" flood-opacity="0.13"/>
    </filter>
  </defs>
  <rect width="760" height="520" fill="url(#bg)"/>
  <circle cx="650" cy="88" r="116" fill="#D9EEFF" opacity="0.76"/>
  <circle cx="96" cy="410" r="122" fill="#FFF1C7" opacity="0.62"/>
  <g filter="url(#shadow)">
    <rect x="72" y="76" width="584" height="364" rx="8" fill="#FFFFFF"/>
  </g>
  <rect x="72" y="76" width="584" height="364" rx="8" stroke="#D6E6F3" stroke-width="2"/>
  <rect x="356" y="138" width="248" height="162" rx="8" fill="#17324D"/>
  <rect x="372" y="154" width="216" height="116" rx="4" fill="#EEF7FF"/>
  <rect x="392" y="174" width="70" height="10" rx="3" fill="#1769B3"/>
  <rect x="392" y="198" width="168" height="8" rx="3" fill="#B8D4EA"/>
  <rect x="392" y="220" width="142" height="8" rx="3" fill="#B8D4EA"/>
  <rect x="392" y="242" width="156" height="8" rx="3" fill="#B8D4EA"/>
  <rect x="430" y="300" width="160" height="18" rx="4" fill="#9DB9D0"/>
  <rect x="148" y="126" width="190" height="240" rx="8" fill="#F9FBFF" stroke="#D6E6F3" stroke-width="2"/>
  <rect x="170" y="154" width="126" height="12" rx="4" fill="#1769B3"/>
  <rect x="170" y="190" width="142" height="8" rx="3" fill="#B4C7D8"/>
  <rect x="170" y="214" width="120" height="8" rx="3" fill="#B4C7D8"/>
  <rect x="170" y="238" width="154" height="8" rx="3" fill="#B4C7D8"/>
  <rect x="170" y="262" width="96" height="8" rx="3" fill="#B4C7D8"/>
  <rect x="170" y="302" width="70" height="42" rx="6" fill="#FFF1C7" stroke="#F1DF9D"/>
  <path d="M266 319H316" stroke="#F0A83B" stroke-width="8" stroke-linecap="round"/>
  <rect x="118" y="324" width="206" height="86" rx="8" fill="#F0F8FF" stroke="#D6E6F3" stroke-width="2"/>
  <path d="M144 354H284" stroke="#79B4E2" stroke-width="7" stroke-linecap="round"/>
  <path d="M144 378H250" stroke="#B8D4EA" stroke-width="7" stroke-linecap="round"/>
  <rect x="414" y="348" width="164" height="84" rx="8" fill="#FFF9E8" stroke="#F1DF9D" stroke-width="2"/>
  <path d="M434 376H552" stroke="#F0A83B" stroke-width="7" stroke-linecap="round"/>
  <path d="M434 400H516" stroke="#F6C36E" stroke-width="7" stroke-linecap="round"/>
  <path d="M612 164C636 174 646 202 636 226C625 250 598 260 574 250" stroke="#79B4E2" stroke-width="12" stroke-linecap="round"/>
  <circle cx="636" cy="174" r="38" fill="#EEF7FF" stroke="#B8D4EA" stroke-width="2"/>
  <path d="M620 174H652" stroke="#1769B3" stroke-width="6" stroke-linecap="round"/>
  <path d="M636 158V190" stroke="#1769B3" stroke-width="6" stroke-linecap="round"/>
  <path d="M620 362L664 318" stroke="#17324D" stroke-width="10" stroke-linecap="round"/>
  <path d="M654 308L682 280" stroke="#F0A83B" stroke-width="12" stroke-linecap="round"/>
  <circle cx="228" cy="88" r="34" fill="#FFF1C7"/>
  <circle cx="266" cy="86" r="18" fill="#D9EEFF"/>
  <circle cx="640" cy="388" r="22" fill="#D9EEFF"/>
</svg>
